<?xml version="1.0" encoding="UTF-8"?><svg id="Layer_1" xmlns="http://www.w3.org/2000/svg" width="283.03" height="497.12" viewBox="0 0 283.03 497.12"><defs><style>.cls-1{fill:#070707;}.cls-1,.cls-2{stroke:#070707;stroke-miterlimit:10;}.cls-2{fill:none;}</style></defs><polygon class="cls-1" points="25.87 36.85 25.87 343.92 43.2 343.92 43.2 102.99 147.13 405.33 178.62 405.33 178.62 8.5 147.13 8.5 153.43 340.77 44.77 38.42 25.87 36.85"/><polygon class="cls-2" points="25.87 36.85 25.87 343.92 43.2 343.92 43.2 102.99 147.13 405.33 178.62 405.33 178.62 8.5 147.13 8.5 153.43 340.77 44.77 38.42 25.87 36.85"/><polygon class="cls-2" points="109.33 120.32 109.33 427.39 126.66 427.39 126.66 186.46 230.59 488.81 262.08 488.81 262.08 91.98 230.59 91.98 236.89 424.25 128.23 121.9 109.33 120.32"/><polygon class="cls-2" points="109.33 120.32 109.33 427.39 126.66 427.39 126.66 186.46 230.59 488.81 262.08 488.81 262.08 91.98 230.59 91.98 236.89 424.25 128.23 121.9 109.33 120.32"/></svg>