<?xml version="1.0" encoding="UTF-8"?><svg id="Layer_1" xmlns="http://www.w3.org/2000/svg" width="1920" height="948.97" viewBox="0 0 1920 948.97"><defs><style>.cls-1{fill:#0001b3;}.cls-2{fill:#ffdb38;}.cls-3{fill:#ffdb3b;}.cls-4{fill:#ffd722;}.cls-5{fill:#070707;}.cls-5,.cls-6{stroke:#070707;stroke-miterlimit:10;}.cls-6{fill:none;}</style></defs><polygon class="cls-6" points="281.82 220.94 281.82 528.01 299.14 528.01 299.14 287.08 403.07 589.42 434.57 589.42 434.57 192.59 403.07 192.59 409.37 524.86 300.72 222.51 281.82 220.94"/><polygon class="cls-6" points="365.28 304.41 365.28 611.48 382.6 611.48 382.6 370.55 486.53 672.9 518.03 672.9 518.03 276.07 486.53 276.07 492.83 608.33 384.18 305.99 365.28 304.41"/><polygon class="cls-5" points="564.48 180.77 564.48 487.85 581.81 487.85 581.81 246.91 685.74 549.26 717.23 549.26 717.23 152.43 685.74 152.43 692.04 484.7 583.38 182.35 564.48 180.77"/><polygon class="cls-6" points="564.48 180.77 564.48 487.85 581.81 487.85 581.81 246.91 685.74 549.26 717.23 549.26 717.23 152.43 685.74 152.43 692.04 484.7 583.38 182.35 564.48 180.77"/><polygon class="cls-6" points="647.94 264.25 647.94 571.32 665.27 571.32 665.27 330.39 769.2 632.74 800.69 632.74 800.69 235.9 769.2 235.9 775.5 568.17 666.84 265.82 647.94 264.25"/><polygon class="cls-6" points="647.94 264.25 647.94 571.32 665.27 571.32 665.27 330.39 769.2 632.74 800.69 632.74 800.69 235.9 769.2 235.9 775.5 568.17 666.84 265.82 647.94 264.25"/><polygon class="cls-4" points="996.44 179.2 996.44 486.27 1013.76 486.27 1013.76 245.34 1117.69 547.69 1149.19 547.69 1149.19 150.85 1117.69 150.85 1123.99 483.12 1015.34 180.77 996.44 179.2"/><polygon class="cls-1" points="947.62 179.2 947.62 486.27 964.94 486.27 964.94 245.34 1068.87 547.69 1100.37 547.69 1100.37 150.85 1068.87 150.85 1075.17 483.12 966.52 180.77 947.62 179.2"/><polygon class="cls-3" points="1378.33 138.56 1378.33 445.63 1395.65 445.63 1395.65 204.7 1499.59 507.04 1531.08 507.04 1531.08 110.21 1499.59 110.21 1505.88 442.48 1397.23 140.13 1378.33 138.56"/><polygon class="cls-2" points="1428.4 98.98 1428.4 406.05 1445.72 406.05 1445.72 165.12 1549.65 467.47 1581.14 467.47 1581.14 70.63 1549.65 70.63 1555.95 402.9 1447.29 100.55 1428.4 98.98"/><polygon class="cls-1" points="1195.26 552.87 1195.26 859.94 1212.58 859.94 1212.58 619.01 1316.52 921.36 1348.01 921.36 1348.01 524.53 1316.52 524.53 1322.81 856.8 1214.16 554.45 1195.26 552.87"/><polygon class="cls-4" points="1149.19 576.03 1149.19 883.1 1166.51 883.1 1166.51 642.17 1270.44 944.52 1301.94 944.52 1301.94 547.69 1270.44 547.69 1276.74 879.95 1168.09 577.61 1149.19 576.03"/></svg>