<?xml version="1.0" encoding="UTF-8"?><svg id="Layer_1" xmlns="http://www.w3.org/2000/svg" width="387.64" height="532.92" viewBox="0 0 387.64 532.92"><defs><style>.cls-1{stroke-miterlimit:10;stroke-width:1px;}.cls-1,.cls-2{fill:#020000;}.cls-1,.cls-2,.cls-3{stroke:#070707;}.cls-2,.cls-4,.cls-3,.cls-5,.cls-6{stroke-miterlimit:10;}.cls-4{stroke:#0a0a0a;}.cls-4,.cls-3,.cls-5,.cls-6{fill:none;}.cls-5{stroke:#0c0c0c;}.cls-6{stroke:#050505;}</style></defs><polygon class="cls-6" points="156.31 196.92 109.73 198.95 99.09 205.02 85.9 214.81 81.22 219.19 91.86 216.49 109.31 209.41 137.4 208.06 148.89 208.06 155.58 201.17 156.31 196.92"/><polygon class="cls-6" points="207.16 190.28 221.79 185.01 241.28 175.88 248.36 175.88 250.58 181.5 235.52 187.12 221.34 193.8 211.16 198.72 202.49 192.04 207.16 190.28"/><polygon class="cls-6" points="104.36 233.08 108.78 227.08 113.19 222.83 118.76 220.33 127.07 217.83 132.42 216.57 139.68 216.57 145.35 219.19 149.45 222.58 154.5 224.83 148.19 229.08 138.73 234.33 129.43 236.83 117.29 236.83 104.36 233.08"/><polygon class="cls-6" points="209.68 212.58 215.04 203.07 220.71 198.72 228.91 195.82 239.95 194.32 248.78 194.32 253.82 195.32 251.93 201.25 245.94 208.06 240.58 209.58 231.75 210.58 222.92 211.33 216.93 211.58 209.68 212.58"/><polygon class="cls-6" points="221.01 201.25 222.91 206.1 225.09 208.06 230.54 208.06 235.72 208.06 239.8 206.53 243.34 203.45 243.34 201.25 243.34 197.9 239.95 194.32 228.91 195.82 220.71 198.72 221.01 201.25"/><polygon class="cls-6" points="112.92 225.74 115.33 229.56 118.76 233.03 121.68 234.77 127.59 234.77 130.66 233.55 132.85 231.81 135.91 229.21 135.91 225.74 135.91 223.31 133.07 221.05 131.09 219.19 129.43 218.62 127.88 218.62 126.15 218.62 120.88 219.69 116.12 221.52 113.65 223.89 112.92 225.74"/><polygon class="cls-6" points="202.49 309.96 192.31 309.96 185.41 309.96 173.58 314.66 164.7 316.61 156.31 316.61 151.39 316.61 166.18 323.26 176.94 326.78 190.34 326.78 209.68 324.82 220.71 320.91 226.53 316.22 231.75 309.96 237.67 305.66 243.34 299.01 226.53 300.58 218.22 302.15 212.53 304.49 202.49 309.96"/><polyline class="cls-3" points="243.34 299.01 231.75 305.66 224.36 308.4 215.49 312.9 206.12 315.04 197.37 317.78 187.38 319.74 175.06 319.74 165.46 319.74 151.39 316.61"/><path class="cls-6" d="m170.67,218.62c-.03,12.57.66,25.14-.03,37.72-.69,7.66-4.14,15.31-11.03,21.33.69,3.28,0,7.66,3.45,10.39,3.45,1.64,6.89,2.73,10.34,3.83,6.21,1.64,11.72,4.37,17.93,4.92,4.83.55,9.65-2.19,14.48-3.28,2.76-4.37,6.89-8.2,11.03-11.48,3.45-2.73,1.38-6.56,4.14-9.84-9.65-6.56-15.86-14.76-20-24.06-2.76-8.2-4.14-16.4-7.58-24.06-1.38-2.73-2.07-5.47-1.97-8.63"/><path class="cls-4" d="m67.89,212.58v55.19-17.17l6.96-28.82,16.24-13.72,17.01-17.55,16.32-17.17,5.01-26.36,10.36-25.75,8.5-17.78v-29.5l-4.64-18.88-7.74-21.78-22.99-6.53-38.07,18.88-25.48,33.39-17.4,45.74-8.24,56.63,4.58,75.5,10.07,38.48,13.73,42.83,18.31,36.3-2.74,50.82,1.83,21.05,11.71-18.88,9.34,18.88,13.8,22.51v-10.89l14.4,38.48v-26.14l17.15,45.01,4.99-31.94,32.96,9.44,17.56-5.08-22.14-11.61,22.14,2.18-14.82-13.8,33.07,13.07-34.9-23.96,27.71,13.07-46.18-47.19-8.99-23.64c-1.47-9.69-2.94-19.4-4.41-29.09-.26-1.74-.53-3.48-.79-5.23"/><polyline class="cls-5" points="277.77 326.78 284.17 362.9 290.54 395.89 277.77 428.97 277.77 456.56 277.77 471.08 295.16 452.2 290.54 476.16 306.15 450.75 313.47 468.9 313.47 431.88 329.03 471.08 336.35 450.75 361.07 488.5 366.57 458.01 366.57 423.16 353.75 395.89 349.17 377.51 351 345.48 356.49 319.74 342.76 283.77 336.35 255.45 332.69 218.62 334.53 184.31 322.16 145.83 303.4 110.25 283.26 72.5 250.58 38.38 226.53 23.86 182.69 16.6 141.37 16.6 112.92 26.76"/><polyline class="cls-3" points="148.3 103.44 162.14 106.62 191.43 106.62 220.71 116.79 239.74 150.91 248.36 175.88 264.03 218.62 275.02 203.45 281.43 219.19 286.68 201.19 290.54 241.85 290.54 264.7 290.54 295.35 285.13 305.78 270.44 333.37 253.82 354.82 243.34 364.63 226.53 373.22 202.49 377.51 175.35 373.83 142.11 361.57 118.76 343.18 104.36 319.74 95.72 299.01 81.22 275.12 74.85 241.85"/><ellipse class="cls-2" cx="125.36" cy="226.7" rx="4.36" ry="3.46"/><ellipse class="cls-1" cx="231.74" cy="201.18" rx="4.36" ry="3.46"/></svg>